<svg width="262" height="356" viewBox="0 0 262 356" fill="none" xmlns="http://www.w3.org/2000/svg">
<path d="M261.12 0H0V355.199H261.12V0Z" fill="#FFFEFB"/>
<path d="M29.8711 85.9386C27.5662 82.1321 25.1411 78.4324 22.1106 75.272C25.1411 72.1116 27.5662 68.4119 29.8711 64.6053C32.1761 68.4119 34.6012 72.1116 37.6316 75.272C34.6012 78.4324 32.1761 82.1321 29.8711 85.9386Z" fill="#C01F3A"/>
<path d="M185.779 97.375C180.247 88.2392 174.427 79.3599 167.154 71.775C174.427 64.1901 180.247 55.3109 185.779 46.175C191.311 55.3109 197.131 64.1901 204.404 71.775C197.131 79.3599 191.311 88.2392 185.779 97.375Z" fill="#C01F3A"/>
<path d="M231.252 290.594C228.947 286.788 226.522 283.088 223.491 279.928C226.522 276.767 228.947 273.067 231.252 269.261C233.557 273.067 235.982 276.767 239.012 279.928C235.982 283.088 233.557 286.788 231.252 290.594Z" fill="#C01F3A"/>
<path d="M75.3436 97.375C69.8117 88.2392 63.9917 79.3599 56.7186 71.775C63.9917 64.1901 69.8117 55.3109 75.3436 46.175C80.8756 55.3109 86.6956 64.1901 93.9686 71.775C86.6956 79.3599 80.8756 88.2392 75.3436 97.375Z" fill="#C01F3A"/>
<path d="M75.3436 309.03C69.8117 299.894 63.9917 291.015 56.7186 283.43C63.9917 275.845 69.8117 266.966 75.3436 257.83C80.8756 266.966 86.6956 275.845 93.9686 283.43C86.6956 291.015 80.8756 299.894 75.3436 309.03Z" fill="#C01F3A"/>
<path d="M185.779 309.037C180.247 299.901 174.427 291.022 167.154 283.437C174.427 275.852 180.247 266.973 185.779 257.837C191.311 266.973 197.131 275.852 204.404 283.437C197.131 291.022 191.311 299.901 185.779 309.037Z" fill="#C01F3A"/>
<path d="M30.1165 61.2563V58.1474H32.9223V53.0189H18.8875V49.4001L34.0743 26.0606L36.5552 26.0734V49.4003H40.8516V53.0191H36.5552L36.474 58.1476H38.826V61.2608H30.1164L30.1165 61.2563ZM32.9223 34.6054L23.28 49.4015H32.9223V34.6054Z" fill="#C01F3A"/>
<path d="M231.003 293.943V297.052H228.198V302.181H242.233V305.799L227.046 329.139L224.565 329.126V305.799H220.268V302.18H224.565L224.646 297.052H222.294V293.939H231.004L231.003 293.943ZM228.198 320.594L237.84 305.798H228.198V320.594Z" fill="#C01F3A"/>
</svg>
