<svg width="262" height="356" viewBox="0 0 262 356" fill="none" xmlns="http://www.w3.org/2000/svg">
<path d="M261.12 0H0V355.199H261.12V0Z" fill="#FFFEFB"/>
<path d="M185.774 46.6183C175.301 46.8455 170.605 58.6219 178.362 67.7668C179.486 69.1007 179.602 69.8661 177.542 68.5848C172.32 65.0972 162.307 67.3899 161.794 78.0522C161.161 91.1896 179.541 94.975 182.992 81.0054C183.174 79.5315 184.373 79.565 184.084 81.6572C183.769 87.3355 181.994 92.6429 179.553 97.8182C183.667 97.8182 188.264 97.8182 192.004 97.8182C189.563 92.6429 187.788 87.3355 187.473 81.6572C187.184 79.565 188.383 79.5315 188.565 81.0054C192.016 94.975 210.396 91.1896 209.763 78.0522C209.25 67.3899 199.237 65.0972 194.015 68.5848C191.954 69.8661 192.07 69.1007 193.195 67.7668C200.952 58.6219 196.256 46.8455 185.783 46.6183C185.783 46.6183 185.783 46.6183 185.772 46.6183H185.774Z" fill="#382A0C"/>
<path d="M75.3392 46.6183C64.8663 46.8455 60.1702 58.6219 67.9265 67.7668C69.0514 69.1007 69.1674 69.8661 67.1072 68.5848C61.8852 65.0972 51.8722 67.3899 51.3594 78.0522C50.726 91.1896 69.1056 94.975 72.5566 81.0054C72.7388 79.5315 73.938 79.565 73.6489 81.6572C73.3343 87.3355 71.5587 92.6429 69.1182 97.8182C73.2316 97.8182 77.8285 97.8182 81.5685 97.8182C79.1281 92.6429 77.3526 87.3355 77.0379 81.6572C76.7487 79.565 77.9481 79.5315 78.1303 81.0054C81.5813 94.975 99.9609 91.1896 99.3275 78.0522C98.8149 67.3899 88.8016 65.0972 83.5795 68.5848C81.5193 69.8661 81.6354 69.1007 82.7603 67.7668C90.5166 58.6219 85.8204 46.8455 75.3478 46.6183C75.3478 46.6183 75.3478 46.6183 75.3371 46.6183H75.3392Z" fill="#382A0C"/>
<path d="M185.774 309.468C175.301 309.24 170.605 297.464 178.362 288.319C179.486 286.985 179.602 286.22 177.542 287.501C172.32 290.989 162.307 288.696 161.794 278.034C161.161 264.896 179.541 261.111 182.992 275.081C183.174 276.554 184.373 276.521 184.084 274.429C183.769 268.75 181.994 263.443 179.553 258.268C183.667 258.268 188.264 258.268 192.004 258.268C189.563 263.443 187.788 268.75 187.473 274.429C187.184 276.521 188.383 276.554 188.565 275.081C192.016 261.111 210.396 264.896 209.763 278.034C209.25 288.696 199.237 290.989 194.015 287.501C191.954 286.22 192.07 286.985 193.195 288.319C200.952 297.464 196.256 309.24 185.783 309.468C185.783 309.468 185.783 309.468 185.772 309.468H185.774Z" fill="#382A0C"/>
<path d="M75.3392 309.468C64.8663 309.24 60.1702 297.464 67.9265 288.319C69.0514 286.985 69.1674 286.22 67.1072 287.501C61.8852 290.989 51.8722 288.696 51.3594 278.034C50.726 264.896 69.1056 261.111 72.5566 275.081C72.7388 276.554 73.938 276.521 73.6489 274.429C73.3343 268.75 71.5587 263.443 69.1182 258.268C73.2316 258.268 77.8285 258.268 81.5685 258.268C79.1281 263.443 77.3526 268.75 77.0379 274.429C76.7487 276.521 77.9481 276.554 78.1303 275.081C81.5813 261.111 99.9609 264.896 99.3275 278.034C98.8149 288.696 88.8016 290.989 83.5795 287.501C81.5193 286.22 81.6354 286.985 82.7603 288.319C90.5166 297.464 85.8204 309.24 75.3478 309.468C75.3478 309.468 75.3478 309.468 75.3371 309.468H75.3392Z" fill="#382A0C"/>
<path d="M130.557 152.443C120.084 152.67 115.388 164.446 123.144 173.591C124.269 174.925 124.385 175.691 122.325 174.41C117.103 170.922 107.09 173.215 106.577 183.877C105.944 197.014 124.323 200.8 127.774 186.83C127.956 185.356 129.156 185.39 128.866 187.482C128.552 193.16 126.776 198.467 124.336 203.643C128.449 203.643 133.046 203.643 136.786 203.643C134.346 198.467 132.57 193.16 132.255 187.482C131.966 185.39 133.166 185.356 133.348 186.83C136.799 200.8 155.178 197.014 154.545 183.877C154.032 173.215 144.019 170.922 138.797 174.41C136.737 175.691 136.853 174.925 137.978 173.591C145.734 164.446 141.038 152.67 130.565 152.443C130.565 152.443 130.565 152.443 130.555 152.443H130.557Z" fill="#382A0C"/>
<path d="M231.254 290.594C235.443 290.499 237.321 285.592 234.218 281.782C233.768 281.226 233.722 280.907 234.546 281.441C236.635 282.894 240.64 281.939 240.845 277.496C241.099 272.022 233.747 270.445 232.367 276.266C232.294 276.88 231.814 276.866 231.93 275.994C232.055 273.628 232.766 271.417 233.742 269.261C232.082 269.261 230.422 269.261 228.762 269.261C229.738 271.417 230.448 273.628 230.574 275.994C230.69 276.866 230.21 276.88 230.137 276.266C228.757 270.445 221.405 272.022 221.658 277.496C221.863 281.939 225.869 282.894 227.958 281.441C228.782 280.907 228.735 281.226 228.285 281.782C225.183 285.592 227.061 290.499 231.25 290.594C231.251 290.594 231.25 290.594 231.25 290.594H231.254Z" fill="#382A0C"/>
<path d="M29.8694 64.605C25.6803 64.6991 23.8019 69.6064 26.9044 73.4168C27.3544 73.9726 27.4008 74.2916 26.5767 73.7577C24.4878 72.3045 20.4826 73.2598 20.2775 77.7025C20.0241 83.1763 27.376 84.7535 28.7565 78.9328C28.8294 78.3187 29.309 78.3328 29.1932 79.2045C29.0674 81.5705 28.3572 83.7819 27.381 85.9383C29.041 85.9383 30.701 85.9383 32.361 85.9383C31.3848 83.7819 30.6745 81.5705 30.5487 79.2045C30.433 78.3328 30.9127 78.3187 30.9856 78.9328C32.366 84.7535 39.7179 83.1763 39.4646 77.7025C39.2594 73.2598 35.2543 72.3045 33.1654 73.7577C32.3413 74.2916 32.3877 73.9726 32.8377 73.4168C35.9402 69.6064 34.0617 64.6997 29.8727 64.605H29.8694Z" fill="#382A0C"/>
<path d="M18.7745 52.1481L22.225 52.115C22.8832 54.2395 24.3396 56.399 26.3172 56.9983C31.9042 58.3352 35.4987 55.1544 36.6822 51.4877C38.1181 47.0401 36.6501 40.7947 32.8039 38.5779C29.6168 36.7397 24.8814 38.2902 22.7065 42.2224L20.29 40.7165L21.5873 26.0608H37.3733V29.525H24.581L24.3781 35.6306C27.132 33.661 31.364 33.6819 34.1162 35.0634C39.3289 37.596 41.7508 43.3539 40.7388 50.1398C39.3345 56.8894 36.2379 60.7139 29.2534 61.2601C21.4844 61.3318 18.7415 55.8904 18.7745 52.1481Z" fill="#382A0C"/>
<path d="M242.345 303.051L238.895 303.084C238.237 300.96 236.78 298.8 234.802 298.201C229.215 296.864 225.621 300.045 224.437 303.711C223.002 308.159 224.47 314.404 228.316 316.621C231.503 318.46 236.238 316.909 238.413 312.977L240.83 314.483L239.533 329.138H223.746V325.674H236.539L236.742 319.569C233.988 321.538 229.756 321.517 227.003 320.136C221.791 317.603 219.369 311.845 220.381 305.06C221.785 298.31 224.882 294.485 231.866 293.939C239.635 293.868 242.378 299.309 242.345 303.051Z" fill="#382A0C"/>
</svg>
