<svg width="262" height="356" viewBox="0 0 262 356" fill="none" xmlns="http://www.w3.org/2000/svg">
<path d="M261.12 0H0V355.199H261.12V0Z" fill="white"/>
<path d="M29.8711 85.9384C29.8711 85.9352 27.4981 82.536 24.2971 78.5357C22.1555 75.8587 20.4435 72.96 20.2842 70.4632C20.1017 67.611 21.8299 64.7497 24.9585 64.611C28.0853 64.4724 29.3544 66.8101 29.8711 68.7375C30.3878 66.8101 31.6571 64.4724 34.7838 64.611C37.9124 64.7497 39.6406 67.611 39.458 70.4632C39.2989 72.96 37.5868 75.8587 35.4453 78.5357C32.2441 82.536 29.8732 85.9356 29.8711 85.9384Z" fill="#C8102E"/>
<path d="M231.252 269.261C231.252 269.264 228.879 272.663 225.678 276.663C223.536 279.34 221.824 282.239 221.665 284.736C221.482 287.588 223.211 290.449 226.339 290.588C229.466 290.727 230.735 288.389 231.252 286.462C231.769 288.389 233.038 290.727 236.165 290.588C239.293 290.449 241.021 287.588 240.839 284.736C240.68 282.239 238.967 279.34 236.826 276.663C233.625 272.663 231.254 269.263 231.252 269.261Z" fill="#C8102E"/>
<path d="M75.3436 97.3748C75.3436 97.3684 70.3662 89.209 63.652 79.6081C59.1602 73.1833 55.5692 66.2264 55.2353 60.2342C54.8524 53.389 58.4771 46.5218 65.0395 46.1889C71.5979 45.8563 74.26 51.4668 75.3436 56.0925C76.4273 51.4668 79.0894 45.8563 85.6478 46.1889C92.2102 46.5218 95.8349 53.389 95.452 60.2342C95.1181 66.2264 91.5271 73.1833 87.0353 79.6081C80.3211 89.209 75.3479 97.3681 75.3436 97.3748Z" fill="#C8102E"/>
<path d="M185.779 97.3748C185.779 97.3684 180.801 89.209 174.087 79.6081C169.595 73.1833 166.004 66.2264 165.67 60.2342C165.287 53.389 168.912 46.5218 175.474 46.1889C182.033 45.8563 184.695 51.4668 185.779 56.0925C186.862 51.4668 189.524 45.8563 196.083 46.1889C202.645 46.5218 206.27 53.389 205.887 60.2342C205.553 66.2264 201.962 73.1833 197.47 79.6081C190.756 89.209 185.783 97.3681 185.779 97.3748Z" fill="#C8102E"/>
<path d="M185.779 257.824C185.779 257.831 180.801 265.99 174.087 275.591C169.595 282.016 166.004 288.973 165.67 294.965C165.287 301.81 168.912 308.677 175.474 309.01C182.033 309.343 184.695 303.732 185.779 299.106C186.862 303.732 189.524 309.343 196.083 309.01C202.645 308.677 206.27 301.81 205.887 294.965C205.553 288.973 201.962 282.016 197.47 275.591C190.756 265.99 185.783 257.831 185.779 257.824Z" fill="#C8102E"/>
<path d="M75.3436 257.824C75.3436 257.831 70.3662 265.99 63.652 275.591C59.1602 282.016 55.5692 288.973 55.2353 294.965C54.8524 301.81 58.4771 308.677 65.0395 309.01C71.5979 309.343 74.26 303.732 75.3436 299.106C76.4273 303.732 79.0894 309.343 85.6478 309.01C92.2102 308.677 95.8349 301.81 95.452 294.965C95.1181 288.973 91.5271 282.016 87.0353 275.591C80.3211 265.99 75.3479 257.831 75.3436 257.824Z" fill="#C8102E"/>
<path d="M30.1164 61.2563V58.1472H32.9222V53.0186H18.8873V49.3999L34.0743 26.0604L36.5552 26.0733V49.4003H40.8517V53.0189H36.5552L36.4741 58.1474H38.8259V61.2606H30.1162L30.1164 61.2563ZM32.9222 34.6051L23.28 49.4014H32.9222V34.6051Z" fill="#C8102E"/>
<path d="M231.004 293.943V297.052H228.198V302.18H242.233V305.799L227.046 329.139L224.565 329.126V305.799H220.268V302.18H224.565L224.646 297.052H222.294V293.938H231.004V293.943ZM228.198 320.594L237.84 305.798H228.198V320.594Z" fill="#C8102E"/>
</svg>
